HIERARCHY
ROOT Hips
{
    OFFSET 0.000000 0.000000 0.000000
    CHANNELS 6 Xposition Yposition Zposition Zrotation Xrotation Yrotation
    JOINT Spine
    {
        OFFSET -0.000000 14.517291 0.000000
        CHANNELS 3 Zrotation Xrotation Yrotation
        JOINT Spine1
        {
            OFFSET -0.000000 37.558300 0.000000
            CHANNELS 3 Zrotation Xrotation Yrotation
            JOINT Neck
            {
                OFFSET -0.000000 37.404057 3.400369
                CHANNELS 3 Zrotation Xrotation Yrotation
                JOINT Head
                {
                    OFFSET -0.000000 24.785618 -3.540803
                    CHANNELS 3 Zrotation Xrotation Yrotation
                    End Site
                    {
                        OFFSET -0.000000 35.408028 0.000000
                    }
                }
            }
            JOINT LeftShoulder
            {
                OFFSET 6.992933 33.973492 -0.192664
                CHANNELS 3 Zrotation Xrotation Yrotation
                JOINT LeftArm
                {
                    OFFSET 21.527611 0.000000 0.000000
                    CHANNELS 3 Zrotation Xrotation Yrotation
                    JOINT LeftForeArm
                    {
                        OFFSET 56.353916 0.000000 0.000000
                        CHANNELS 3 Zrotation Xrotation Yrotation
                        JOINT LeftHand
                        {
                            OFFSET 47.774071 0.000000 0.000000
                            CHANNELS 3 Zrotation Xrotation Yrotation
                            End Site
                            {
                                OFFSET 26.556021 0.000000 0.000000
                            }
                        }
                    }
                }
            }
            JOINT RightShoulder
            {
                OFFSET -7.065357 33.973492 -0.192664
                CHANNELS 3 Zrotation Xrotation Yrotation
                JOINT RightArm
                {
                    OFFSET -21.527611 0.000000 0.000000
                    CHANNELS 3 Zrotation Xrotation Yrotation
                    JOINT RightForeArm
                    {
                        OFFSET -56.353916 0.000000 0.000000
                        CHANNELS 3 Zrotation Xrotation Yrotation
                        JOINT RightHand
                        {
                            OFFSET -47.774071 0.000000 0.000000
                            CHANNELS 3 Zrotation Xrotation Yrotation
                            End Site
                            {
                                OFFSET -26.556021 0.000000 0.000000
                            }
                        }
                    }
                }
            }
        }
    }
    JOINT LeftUpLeg
    {
        OFFSET 17.704014 0.000000 0.000000
        CHANNELS 3 Zrotation Xrotation Yrotation
        JOINT LeftLeg
        {
            OFFSET -0.000000 -81.181816 0.000000
            CHANNELS 3 Zrotation Xrotation Yrotation
            JOINT LeftFoot
            {
                OFFSET -0.000000 -62.821102 0.000000
                CHANNELS 3 Zrotation Xrotation Yrotation
                JOINT LeftToeBase
                {
                    OFFSET -0.000000 -11.507608 26.556021
                    CHANNELS 3 Zrotation Xrotation Yrotation
                    End Site
                    {
                        OFFSET -0.000000 0.000000 7.081605
                    }
                }
            }
        }
    }
    JOINT RightUpLeg
    {
        OFFSET -17.704014 0.000000 0.000000
        CHANNELS 3 Zrotation Xrotation Yrotation
        JOINT RightLeg
        {
            OFFSET -0.000000 -81.181816 0.000000
            CHANNELS 3 Zrotation Xrotation Yrotation
            JOINT RightFoot
            {
                OFFSET -0.000000 -62.821102 0.000000
                CHANNELS 3 Zrotation Xrotation Yrotation
                JOINT RightToeBase
                {
                    OFFSET -0.000000 -11.507608 26.556021
                    CHANNELS 3 Zrotation Xrotation Yrotation
                    End Site
                    {
                        OFFSET -0.000000 0.000000 7.081605
                    }
                }
            }
        }
    }
}
MOTION
Frames:    10
Frame Time:    0.008333
24.148161    147.272491    47.425140    3.202640    3.181192    -56.868103    -0.581726    -0.772793    1.184292    3.445603    -2.256716    0.462154    19.310860    3.524489    18.671328    -15.239246    7.115967    15.992599    11.798487    0.758501    -14.851665    -3.930003    -6.697666    -19.881573    -4.778532    -1.429203    -86.594231    -3.745632    -5.086020    -25.396778    -5.682402    -0.488285    -4.678172    27.336241    -8.043554    49.006462    -33.020306    -59.239799    -18.075787    31.094816    -55.382908    42.836723    35.926327    -23.920387    26.971825    -27.881399    39.911858    3.230499    -1.050111    -11.432721    43.555679    0.000000    0.000000    0.000000    -28.156078    -8.162290    -18.812998    3.559290    30.390211    -6.996276    19.417898    -11.089432    5.600600    0.000000    0.000000    0.000000    
24.165020    147.266296    47.421741    3.203519    3.181301    -56.865047    -0.578991    -0.779704    1.172553    3.457158    -2.246675    0.458295    19.317934    3.515493    18.670849    -15.246144    7.133028    15.991416    11.790007    0.756739    -14.845057    -3.902701    -6.668759    -19.474583    -4.844828    -1.273686    -86.663841    -3.635342    -5.012392    -25.738806    -5.673837    -0.469935    -4.687659    27.346636    -7.990521    48.992416    -33.088383    -59.253902    -18.138718    31.106133    -55.416889    42.818314    35.928226    -23.931814    26.971838    -27.891428    39.920624    3.243418    -1.036510    -11.435094    43.542725    0.000000    0.000000    0.000000    -28.160955    -8.170682    -18.809330    3.563449    30.396868    -7.032635    19.438633    -11.091994    5.625501    0.000000    0.000000    0.000000    
24.178741    147.262985    47.420074    3.199940    3.175320    -56.860256    -0.589562    -0.781723    1.164313    3.481842    -2.234707    0.455561    19.326565    3.520679    18.671894    -15.262539    7.128089    15.990441    11.789924    0.744832    -14.853453    -3.915468    -6.658834    -19.871492    -4.746471    -1.483881    -86.592140    -3.762492    -5.105994    -25.407351    -5.668363    -0.460549    -4.702955    27.348076    -7.950583    48.966461    -33.084820    -59.262001    -18.145109    31.133060    -55.416824    42.835732    35.920013    -23.937157    26.973278    -27.886917    39.922478    3.240766    -1.035573    -11.427462    43.556602    0.000000    0.000000    0.000000    -28.168074    -8.163764    -18.815788    3.569616    30.393698    -7.036337    19.434338    -11.096663    5.626054    0.000000    0.000000    0.000000    
24.199162    147.257919    47.419556    3.208924    3.176503    -56.859516    -0.584252    -0.796926    1.155096    3.484725    -2.225868    0.452306    19.329998    3.531458    18.668903    -15.269856    7.115156    15.986474    11.796689    0.748081    -14.856209    -3.908626    -6.660974    -19.470654    -4.841677    -1.299103    -86.653641    -3.626677    -5.035521    -25.744339    -5.657556    -0.457771    -4.703028    27.349703    -7.918061    48.943260    -33.089821    -59.260254    -18.157528    31.256269    -55.368027    42.941082    35.914097    -23.956249    26.984837    -27.873304    39.932392    3.235263    -1.033815    -11.427732    43.553158    0.000000    0.000000    0.000000    -28.178394    -8.181525    -18.832512    3.559058    30.407230    -7.025523    19.445601    -11.097730    5.636998    0.000000    0.000000    0.000000    
24.215672    147.253906    47.417130    3.211311    3.176531    -56.860825    -0.587353    -0.805391    1.149064    3.504129    -2.215445    0.450394    19.333958    3.530889    18.664221    -15.280438    7.113486    15.979934    11.797029    0.739712    -14.863528    -3.919543    -6.660927    -19.864265    -4.758776    -1.499926    -86.584236    -3.775325    -5.129411    -25.414488    -5.655516    -0.447063    -4.721499    27.375341    -7.910922    48.951252    -33.084820    -59.256767    -18.150265    31.400862    -55.303551    43.067017    35.912853    -23.962786    26.988562    -27.936943    40.002777    3.298732    -0.975632    -11.510935    43.530426    0.000000    0.000000    0.000000    -28.185726    -8.188031    -18.836351    3.560269    30.407610    -7.019544    19.434935    -11.100477    5.655067    0.000000    0.000000    0.000000    
24.234442    147.252686    47.414875    3.210221    3.179207    -56.857178    -0.571353    -0.808161    1.140281    3.495483    -2.211004    0.447204    19.352772    3.528096    18.656084    -15.295329    7.119340    15.968247    11.813696    0.741575    -14.865594    -3.914620    -6.675142    -19.476454    -4.861903    -1.289553    -86.646103    -3.616914    -5.047036    -25.727674    -5.632675    -0.430294    -4.734520    27.369432    -7.917203    48.947926    -33.034527    -59.276051    -18.109947    31.488316    -55.273418    43.163734    35.916386    -23.971096    26.993282    -27.946220    40.004932    3.292578    -0.968271    -11.505411    43.536057    0.000000    0.000000    0.000000    -28.191236    -8.193194    -18.847813    3.566869    30.410183    -7.002744    19.437544    -11.087253    5.624114    0.000000    0.000000    0.000000    
24.250238    147.250580    47.409798    3.214367    3.179958    -56.859737    -0.580810    -0.815984    1.135705    3.524553    -2.200803    0.445976    19.361252    3.529152    18.664698    -15.319114    7.117568    15.974396    11.804180    0.736852    -14.873271    -3.922248    -6.670342    -19.878477    -4.770171    -1.505719    -86.575600    -3.778315    -5.145149    -25.391914    -5.636308    -0.424199    -4.751565    27.371519    -7.895711    48.946293    -32.996887    -59.270813    -18.047007    31.525084    -55.238224    43.193962    35.914753    -23.981499    27.019413    -27.926086    40.018528    3.280416    -0.980306    -11.512053    43.528225    0.000000    0.000000    0.000000    -28.198406    -8.205262    -18.853338    3.567991    30.414047    -7.019174    19.440338    -11.080695    5.655723    0.000000    0.000000    0.000000    
24.268488    147.248001    47.409039    3.219423    3.176570    -56.861298    -0.574420    -0.822778    1.127754    3.516534    -2.193893    0.442831    19.379759    3.523206    18.665779    -15.321953    7.127420    15.973349    11.821362    0.733825    -14.878178    -3.921283    -6.668568    -19.475880    -4.857010    -1.310089    -86.636963    -3.643566    -5.055196    -25.750864    -5.615542    -0.413781    -4.756920    27.345552    -7.854247    48.939892    -33.011799    -59.290642    -18.009539    31.519201    -55.256844    43.193184    35.909554    -23.985777    27.018925    -27.938768    40.011662    3.273107    -0.966050    -11.508765    43.549171    0.000000    0.000000    0.000000    -28.210779    -8.214176    -18.855877    3.570862    30.416977    -7.026570    19.434229    -11.073023    5.663873    0.000000    0.000000    0.000000    
24.284782    147.247910    47.407658    3.219613    3.173720    -56.868046    -0.568803    -0.826717    1.127135    3.513346    -2.183339    0.442347    19.388800    3.523607    18.667364    -15.314224    7.118612    15.973375    11.835838    0.728516    -14.887553    -3.938295    -6.646380    -19.884573    -4.746539    -1.544031    -86.572693    -3.789765    -5.157878    -25.399567    -5.602080    -0.425605    -4.759492    27.360798    -7.887901    48.923714    -32.901772    -59.277462    -17.904474    31.566521    -55.196369    43.220310    35.906960    -23.986410    27.036453    -27.929014    40.018284    3.278571    -0.957819    -11.504072    43.528515    0.000000    0.000000    0.000000    -28.218019    -8.220209    -18.861980    3.574982    30.412409    -7.033880    19.418148    -11.065701    5.666995    0.000000    0.000000    0.000000    
24.302006    147.243866    47.409492    3.217569    3.168809    -56.870995    -0.561006    -0.829414    1.121601    3.512912    -2.170120    0.439941    19.388102    3.515481    18.667744    -15.302777    7.117421    15.973133    11.845015    0.729203    -14.893754    -3.936093    -6.667951    -19.481970    -4.859159    -1.329135    -86.647850    -3.656163    -5.075679    -25.708218    -5.600724    -0.431922    -4.770131    27.377289    -7.898161    48.932190    -32.836239    -59.266010    -17.819347    31.586433    -55.156517    43.225361    35.901203    -23.985928    27.044689    -27.925575    40.024616    3.281958    -0.952425    -11.506151    43.516552    0.000000    0.000000    0.000000    -28.227713    -8.221954    -18.874975    3.570544    30.413759    -7.039794    19.442831    -11.047371    5.689827    0.000000    0.000000    0.000000    
